<svg width="15" height="16" viewBox="0 0 15 16" fill="none" xmlns="http://www.w3.org/2000/svg">
<path d="M13.1363 7.40381H8.26828V2.53575C8.26828 2.37437 8.20417 2.21959 8.09006 2.10547C7.97594 1.99136 7.82116 1.92725 7.65978 1.92725C7.49839 1.92725 7.34361 1.99136 7.2295 2.10547C7.11538 2.21959 7.05127 2.37437 7.05127 2.53575V7.40381H2.18321C2.02183 7.40381 1.86705 7.46792 1.75293 7.58204C1.63882 7.69615 1.57471 7.85093 1.57471 8.01232C1.57471 8.1737 1.63882 8.32848 1.75293 8.4426C1.86705 8.55671 2.02183 8.62082 2.18321 8.62082H7.05127V13.4889C7.05127 13.6503 7.11538 13.805 7.2295 13.9192C7.34361 14.0333 7.49839 14.0974 7.65978 14.0974C7.82116 14.0974 7.97594 14.0333 8.09006 13.9192C8.20417 13.805 8.26828 13.6503 8.26828 13.4889V8.62082H13.1363C13.2977 8.62082 13.4525 8.55671 13.5666 8.4426C13.6807 8.32848 13.7448 8.1737 13.7448 8.01232C13.7448 7.85093 13.6807 7.69615 13.5666 7.58204C13.4525 7.46792 13.2977 7.40381 13.1363 7.40381Z" fill="white"/>
</svg>
