<svg width="16" height="16" viewBox="0 0 16 16" fill="none" xmlns="http://www.w3.org/2000/svg">
<path fill-rule="evenodd" clip-rule="evenodd" d="M8 14C11.3137 14 14 11.3137 14 8C14 4.68629 11.3137 2 8 2C4.68629 2 2 4.68629 2 8C2 11.3137 4.68629 14 8 14ZM7.84548 10.4268L10.752 6.93894C10.9877 6.65609 10.9495 6.23571 10.6667 6C10.3838 5.76429 9.96344 5.80251 9.72773 6.08536L7.99069 8.16981C7.61363 8.62228 6.92945 8.65331 6.51298 8.23684L6.27614 8C6.01579 7.73965 5.59368 7.73965 5.33333 8C5.07298 8.26035 5.07298 8.68246 5.33333 8.94281L6.86193 10.4714C7.13913 10.7486 7.59452 10.7279 7.84548 10.4268Z" fill="url(#paint0_linear_2552_9683)"/>
<defs>
<linearGradient id="paint0_linear_2552_9683" x1="10.8788" y1="-13.3333" x2="-1.46589" y2="-12.0559" gradientUnits="userSpaceOnUse">
<stop stop-color="#FE7E00"/>
<stop offset="1" stop-color="#FE0000"/>
</linearGradient>
</defs>
</svg>
