<svg width="24" height="25" viewBox="0 0 24 25" fill="none" xmlns="http://www.w3.org/2000/svg">
<g clip-path="url(#clip0_2552_9529)">
<path d="M0.75 12.0407C0.75 16.9532 3.9 21.1157 8.25 22.6532V1.42822C3.9 2.96572 0.75 7.12822 0.75 12.0407ZM23.25 12.0407C23.25 7.12822 20.1375 2.96572 15.75 1.42822V22.6532C20.1375 21.1157 23.25 16.9532 23.25 12.0407Z" fill="#046A38"/>
<path d="M8.25 22.653C9.4125 23.0655 10.6875 23.2905 12 23.2905C13.3125 23.2905 14.5875 23.0655 15.75 22.653V1.42803C14.5875 1.01553 13.3125 0.790527 12 0.790527C10.6875 0.790527 9.4125 1.01553 8.25 1.42803V22.653Z" fill="#F9F9F9"/>
</g>
<defs>
<clipPath id="clip0_2552_9529">
<rect width="24" height="24" fill="white" transform="translate(0 0.0405273)"/>
</clipPath>
</defs>
</svg>
